<svg xmlns="http://www.w3.org/2000/svg" viewBox="0 0 128 128" role="img" aria-labelledby="title desc">
  <title id="title">DishKAI cloche logo</title>
  <desc id="desc">An orange serving cloche with sparkles on a warm glass tile.</desc>
  <defs>
    <linearGradient id="tile" x1="18" y1="12" x2="112" y2="118" gradientUnits="userSpaceOnUse">
      <stop offset="0" stop-color="#fff2c8"/>
      <stop offset="0.44" stop-color="#ffd067"/>
      <stop offset="1" stop-color="#ff7a00"/>
    </linearGradient>
    <linearGradient id="dome" x1="34" y1="40" x2="104" y2="104" gradientUnits="userSpaceOnUse">
      <stop offset="0" stop-color="#ffdc69"/>
      <stop offset="0.38" stop-color="#ff9f14"/>
      <stop offset="1" stop-color="#e65300"/>
    </linearGradient>
    <linearGradient id="rim" x1="25" y1="82" x2="111" y2="103" gradientUnits="userSpaceOnUse">
      <stop offset="0" stop-color="#ff9d14"/>
      <stop offset="1" stop-color="#e64b00"/>
    </linearGradient>
    <radialGradient id="glow" cx="59" cy="58" r="62" gradientUnits="userSpaceOnUse">
      <stop offset="0" stop-color="#fff0aa" stop-opacity="0.86"/>
      <stop offset="0.55" stop-color="#ff9c18" stop-opacity="0.45"/>
      <stop offset="1" stop-color="#b95100" stop-opacity="0"/>
    </radialGradient>
    <filter id="softShadow" x="-20%" y="-20%" width="140%" height="150%" color-interpolation-filters="sRGB">
      <feDropShadow dx="0" dy="10" stdDeviation="9" flood-color="#9d3e00" flood-opacity="0.28"/>
    </filter>
  </defs>
  <rect width="128" height="128" rx="30" fill="#fff7dc"/>
  <rect x="8" y="8" width="112" height="112" rx="26" fill="url(#tile)" opacity="0.28"/>
  <circle cx="64" cy="63" r="55" fill="url(#glow)"/>
  <g filter="url(#softShadow)">
    <path d="M34 78.7C37.1 52.1 55 37 75 39.7c18 2.4 30.4 17.4 34 40.9L34 78.7Z" fill="url(#dome)"/>
    <path d="M39.1 73.1C43 53.8 57.2 43.6 72.6 45.8c13.9 2 23 12.1 28.2 28.8L39.1 73.1Z" fill="#ffba24" opacity="0.48"/>
    <path d="M73.2 40.2c-1.3-7.2 2.6-11.6 7.7-11 5.2.5 8.3 5.7 7.1 12.5-4.7-1.3-9.8-1.8-14.8-1.5Z" fill="#ff7a00"/>
    <ellipse cx="81.2" cy="34.1" rx="7" ry="4.1" fill="#ffe7ad" opacity="0.82" transform="rotate(22 81.2 34.1)"/>
    <path d="M27.4 91.2c14.1-8.7 66.1-13.7 87.7-7.8 3.1.9 3.5 4.7.7 6.5-15.9 10.5-69.4 15.4-89 7.8-2.9-1.1-2.4-4.6.6-6.5Z" fill="url(#rim)"/>
    <path d="M32.4 89.5c20.7-7.4 57.7-9.1 78.1-4" fill="none" stroke="#ffc54d" stroke-width="2" stroke-linecap="round" opacity="0.52"/>
    <path d="M80.5 42.9c13.5 5.2 20 16.2 23.8 30.7l-14.4-.4c-4-14.2-10.2-23.1-22.7-29.8 4.5-.8 8.9-.8 13.3-.5Z" fill="#fff8df" opacity="0.88"/>
  </g>
  <path d="M101.8 28.4c2.3 8.4 5.6 11.7 14 14-8.4 2.3-11.7 5.6-14 14-2.3-8.4-5.6-11.7-14-14 8.4-2.3 11.7-5.6 14-14Z" fill="#fff2ae" opacity="0.82"/>
  <path d="M75.6 57.4c1.5 5.4 3.6 7.5 9 9-5.4 1.5-7.5 3.6-9 9-1.5-5.4-3.6-7.5-9-9 5.4-1.5 7.5-3.6 9-9Z" fill="#fff8df"/>
  <path d="M111.2 57.8c1.2 4.4 3 6.2 7.4 7.4-4.4 1.2-6.2 3-7.4 7.4-1.2-4.4-3-6.2-7.4-7.4 4.4-1.2 6.2-3 7.4-7.4Z" fill="#ffe27d" opacity="0.9"/>
</svg>
