<svg xmlns="http://www.w3.org/2000/svg" viewBox="0 0 128 128" role="img" aria-labelledby="title desc">
  <title id="title">DishKAI app icon</title>
  <desc id="desc">A clean orange serving cloche with two sparkles on a white rounded square.</desc>
  <defs>
    <linearGradient id="tile" x1="16" y1="8" x2="112" y2="124" gradientUnits="userSpaceOnUse">
      <stop offset="0" stop-color="#fffaf1"/>
      <stop offset="1" stop-color="#fff1dc"/>
    </linearGradient>
    <linearGradient id="orange" x1="35" y1="35" x2="98" y2="98" gradientUnits="userSpaceOnUse">
      <stop offset="0" stop-color="#f59a24"/>
      <stop offset="1" stop-color="#d94d00"/>
    </linearGradient>
    <linearGradient id="rim" x1="25" y1="86" x2="109" y2="96" gradientUnits="userSpaceOnUse">
      <stop offset="0" stop-color="#ef7c11"/>
      <stop offset="1" stop-color="#ca4100"/>
    </linearGradient>
    <filter id="shadow" x="-18%" y="-18%" width="136%" height="140%" color-interpolation-filters="sRGB">
      <feDropShadow dx="0" dy="8" stdDeviation="6" flood-color="#b94a00" flood-opacity="0.18"/>
    </filter>
  </defs>
  <rect x="6" y="6" width="116" height="116" rx="29" fill="url(#tile)"/>
  <rect x="6.5" y="6.5" width="115" height="115" rx="28.5" fill="none" stroke="#ffffff" stroke-opacity="0.78"/>
  <g filter="url(#shadow)">
    <path d="M34.2 78.8c2.7-24.7 19.7-39.1 39.4-36.8 17.1 2 29.4 15.8 32.7 38.4L34.2 78.8Z" fill="url(#orange)"/>
    <path d="M39.9 73.4C44.6 56 57.7 47.1 72 48.7c12.7 1.4 21.2 10.1 26.3 25.2L39.9 73.4Z" fill="#ffbd35" opacity="0.34"/>
    <path d="M72.2 42.1c-.9-7.1 3-11.4 8.3-10.8 5.2.6 8.3 5.6 7 12.2-4.8-1.2-10.3-1.7-15.3-1.4Z" fill="#e85b00"/>
    <ellipse cx="80.6" cy="36.1" rx="6.2" ry="3.5" fill="#ffe2a2" opacity="0.82" transform="rotate(22 80.6 36.1)"/>
    <path d="M25.7 91.9c14.1-8.1 65.7-12.5 87.8-6.5 2.8.8 3.1 4.2.6 5.9-15.9 9.8-69.5 14.4-88.9 7.4-2.8-1-2.4-5 .5-6.8Z" fill="url(#rim)"/>
    <path d="M33.6 90.4c20.7-6.6 54.7-7.7 75.3-3.3" fill="none" stroke="#ffc457" stroke-width="2.4" stroke-linecap="round" opacity="0.52"/>
    <path d="M79.7 45.1c11.9 4.9 18.2 14.6 22 29.1l-12.2-.3c-3.6-12.2-9.2-20.2-19.9-26.3 3.4-1.3 6.8-2.1 10.1-2.5Z" fill="#fff5da" opacity="0.95"/>
  </g>
  <path d="M36.2 23.7c1.6 5.7 3.9 8 9.6 9.6-5.7 1.6-8 3.9-9.6 9.6-1.6-5.7-3.9-8-9.6-9.6 5.7-1.6 8-3.9 9.6-9.6Z" fill="#d95a12"/>
  <path d="M67 24.6c1.1 4.2 2.8 5.9 7 7-4.2 1.1-5.9 2.8-7 7-1.1-4.2-2.8-5.9-7-7 4.2-1.1 5.9-2.8 7-7Z" fill="#e99537"/>
</svg>
